<?xml version="1.0" encoding="UTF-8"?>
<svg version="1.1" xmlns="http://www.w3.org/2000/svg" width="500" height="500">
<path d="M0 0 C165 0 330 0 500 0 C500 165 500 330 500 500 C335 500 170 500 0 500 C0 335 0 170 0 0 Z " fill="#FEFEFE" transform="translate(0,0)"/>
<path d="M0 0 C4.29 0 8.58 0 13 0 C13 7.26 13 14.52 13 22 C16.3 22 19.6 22 23 22 C24 23 24 23 24.1328125 25.6875 C24.13023437 26.780625 24.12765625 27.87375 24.125 29 C24.12886719 30.6396875 24.12886719 30.6396875 24.1328125 32.3125 C24 35 24 35 23 36 C19.7 36 16.4 36 13 36 C13 44.58 13 53.16 13 62 C15.97 61.01 18.94 60.02 22 59 C22.99 61.64 23.98 64.28 25 67 C26.12812303 65.89902432 27.25237811 64.79408444 28.375 63.6875 C29.00148438 63.07261719 29.62796875 62.45773438 30.2734375 61.82421875 C32.18086607 59.91187472 32.18086607 59.91187472 34 57 C30.04 56.67 26.08 56.34 22 56 C22 52.37 22 48.74 22 45 C45.76 45 69.52 45 94 45 C94 48.63 94 52.26 94 56 C78.82 56 63.64 56 48 56 C47.34 57.65 46.68 59.3 46 61 C61.18 61.33 76.36 61.66 92 62 C90.24642289 97.07154213 90.24642289 97.07154213 82.9375 103.9375 C79.13633151 106.02201175 76.07074485 106.10828758 71.8125 106.0625 C70.72582031 106.05347656 69.63914062 106.04445313 68.51953125 106.03515625 C67.27236328 106.01775391 67.27236328 106.01775391 66 106 C65.01 102.37 64.02 98.74 63 95 C66.63 94.67 70.26 94.34 74 94 C75.36405454 90.58986366 76.27127924 88.24829183 76.8515625 84.79296875 C76.98046875 84.04208984 77.109375 83.29121094 77.2421875 82.51757812 C77.36851562 81.74865234 77.49484375 80.97972656 77.625 80.1875 C77.82609375 79.00510742 77.82609375 79.00510742 78.03125 77.79882812 C78.3591229 75.86671994 78.68024237 73.9334678 79 72 C77.35 72 75.7 72 74 72 C73.649375 73.2375 73.29875 74.475 72.9375 75.75 C69.41371856 86.20661656 62.8474998 96.26341893 55 104 C52.2265625 105.3046875 52.2265625 105.3046875 50 106 C47.36 103.69 44.72 101.38 42 99 C42.639375 98.38125 43.27875 97.7625 43.9375 97.125 C44.96297618 96.08790369 45.98295301 95.04536384 47 94 C47.68964844 93.29488281 48.37929688 92.58976562 49.08984375 91.86328125 C54.83384113 85.76580711 59.05707762 79.37871649 63 72 C60.69 72 58.38 72 56 72 C55.74089844 72.72960937 55.48179687 73.45921875 55.21484375 74.2109375 C50.75983086 84.4388449 39.11723269 96.50510043 29 101 C26.36 98.69 23.72 96.38 21 94 C23.93358007 90.8771567 26.93684468 88.24995422 30.375 85.6875 C35.25951363 81.96285416 40.21365023 77.57269954 43 72 C36.77693344 73.05924537 33.64236413 75.79922859 29.2109375 80.22265625 C26.7014035 82.24003782 25.21557984 82.91154554 22 83 C20.18810716 81.60623628 19.03325215 80.04232091 17.625 78.25 C16.0286817 76.7189893 16.0286817 76.7189893 13.66845703 77.29052734 C11.0840754 77.97764656 9.03241223 78.84631246 6.6796875 80.1015625 C5.89722656 80.50890625 5.11476563 80.91625 4.30859375 81.3359375 C2.67686308 82.20025712 1.04666712 83.06747989 -0.58203125 83.9375 C-1.36191406 84.34226562 -2.14179688 84.74703125 -2.9453125 85.1640625 C-3.65187988 85.53998535 -4.35844727 85.9159082 -5.08642578 86.30322266 C-7 87 -7 87 -10 86 C-11.16796875 83.8203125 -11.16796875 83.8203125 -12.1875 81.125 C-12.53167969 80.24070312 -12.87585938 79.35640625 -13.23046875 78.4453125 C-14 76 -14 76 -14 73 C-12.04350603 72.16235732 -10.08474444 71.33000941 -8.125 70.5 C-6.48917969 69.80390625 -6.48917969 69.80390625 -4.8203125 69.09375 C-2 68 -2 68 0 68 C0 57.11 0 46.22 0 35 C-3.63 35 -7.26 35 -11 35 C-11 31.04 -11 27.08 -11 23 C-7.37 23 -3.74 23 0 23 C0 15.41 0 7.82 0 0 Z " fill="#3E3C3C" transform="translate(278,121)"/>
<path d="M0 0 C1.703125 1.99609375 1.703125 1.99609375 3.25 4.4375 C3.77078125 5.24058594 4.2915625 6.04367188 4.828125 6.87109375 C6 9 6 9 6 11 C10.53681096 11.28944046 14.61323831 11.26971513 19 10 C21.91149161 6.66962594 23.50632407 3.1400059 25 -1 C26.6045556 -0.85851011 28.20863767 -0.71164314 29.8125 -0.5625 C30.70582031 -0.48128906 31.59914062 -0.40007812 32.51953125 -0.31640625 C35 0 35 0 38 1 C36.94124926 4.40312738 35.99097846 7.01353231 34 10 C39.28 10.33 44.56 10.66 50 11 C50 14.63 50 18.26 50 22 C39.77 22 29.54 22 19 22 C18.34 23.98 17.68 25.96 17 28 C25.25 28 33.5 28 42 28 C42 46.48 42 64.96 42 84 C23.52 84 5.04 84 -14 84 C-14 65.52 -14 47.04 -14 28 C-8.06 28 -2.12 28 4 28 C4.33 26.02 4.66 24.04 5 22 C-4.24 22 -13.48 22 -23 22 C-23 18.37 -23 14.74 -23 11 C-18.05 10.67 -13.1 10.34 -8 10 C-9.32 8.02 -10.64 6.04 -12 4 C-12 3.34 -12 2.68 -12 2 C-10.75579353 1.4654744 -9.50429064 0.94791389 -8.25 0.4375 C-7.55390625 0.14746094 -6.8578125 -0.14257812 -6.140625 -0.44140625 C-3.57168253 -1.11176898 -2.42461362 -1.08521013 0 0 Z " fill="#3D3B3B" transform="translate(183,121)"/>
<path d="M0 0 C-0.58317494 3.47535576 -1.4705475 6.32515501 -3.0390625 9.4765625 C-3.4515625 10.30736328 -3.8640625 11.13816406 -4.2890625 11.99414062 C-4.95035156 13.29641602 -4.95035156 13.29641602 -5.625 14.625 C-6.07359375 15.51638672 -6.5221875 16.40777344 -6.984375 17.32617188 C-9.91375998 23.07195128 -13.01367961 28.55871788 -16.625 33.90625 C-17.9244845 35.88501049 -18.9615357 37.87647365 -20 40 C-18.80455566 41.17973389 -18.80455566 41.17973389 -17.58496094 42.38330078 C-14.61285304 45.31904724 -11.64750106 48.26153984 -8.68408203 51.20605469 C-7.40367249 52.47644335 -6.1214689 53.74502659 -4.83740234 55.01171875 C-2.98574082 56.8389596 -1.14075446 58.67272295 0.703125 60.5078125 C1.2730719 61.06743683 1.8430188 61.62706116 2.43023682 62.2036438 C5.80204582 65.57451001 8.48832696 68.94391524 11 73 C9.04709472 74.83943372 7.08818082 76.67159131 5.125 78.5 C4.56941406 79.02464844 4.01382813 79.54929687 3.44140625 80.08984375 C-0.7734375 84 -0.7734375 84 -3 84 C-4.3046875 82.5234375 -4.3046875 82.5234375 -5.875 80.375 C-13.21412595 70.67632207 -21.16385998 61.36834437 -30 53 C-33.84236676 54.59273751 -36.33781064 57.06978426 -39.3125 59.9375 C-64.01157702 83.13708682 -64.01157702 83.13708682 -74.50390625 82.95703125 C-77.89752298 81.65587929 -79.47471618 79.69399137 -81.8125 76.9375 C-82.99779297 75.55884766 -82.99779297 75.55884766 -84.20703125 74.15234375 C-84.79871094 73.44207031 -85.39039063 72.73179687 -86 72 C-82.95639196 69.47951209 -79.71801392 67.76455623 -76.21362305 65.99462891 C-51.15957661 53.32253704 -34.45607588 34.91215177 -22 10 C-39.49 10.33 -56.98 10.66 -75 11 C-75 5.72 -75 0.44 -75 -5 C-66.61157448 -5.17601258 -58.223115 -5.34315458 -49.83421803 -5.49477577 C-45.93874171 -5.56553552 -42.04341941 -5.64014909 -38.14819336 -5.72363281 C-34.38766564 -5.80408679 -30.62707192 -5.87433534 -26.86621666 -5.93757248 C-25.43286833 -5.96345552 -23.99958102 -5.99298814 -22.56638527 -6.02626419 C-20.55593058 -6.07231381 -18.54516414 -6.10407698 -16.53442383 -6.13525391 C-15.39080887 -6.15746002 -14.24719391 -6.17966614 -13.06892395 -6.20254517 C-7.48262316 -5.83385626 -4.18367202 -3.58600459 0 0 Z " fill="#3F3D3D" transform="translate(356,299)"/>
<path d="M0 0 C18.15 0 36.3 0 55 0 C55 12.87 55 25.74 55 39 C36.85 39 18.7 39 0 39 C0 26.13 0 13.26 0 0 Z " fill="#413F3F" transform="translate(310,122)"/>
<path d="M0 0 C8.91 0 17.82 0 27 0 C27.01417969 2.61292969 27.02835938 5.22585937 27.04296875 7.91796875 C27.07360791 10.45659186 27.11269156 12.99495476 27.15258789 15.53344727 C27.17574364 17.29376991 27.19015794 19.05423061 27.19555664 20.81469727 C27.20486442 23.34999379 27.24589048 25.88312628 27.29296875 28.41796875 C27.2890361 29.20149216 27.28510345 29.98501556 27.28105164 30.7922821 C27.39294096 35.00962896 27.64126462 36.55884702 30.40161133 39.95336914 C32.75242424 41.804996 34.7500266 43.10740542 37.5 44.25 C38.59828125 44.72179687 38.59828125 44.72179687 39.71875 45.203125 C44.15741627 46.75361801 48.29805149 47.12355878 52.98364258 47.11352539 C54.16448929 47.11344986 55.345336 47.11337433 56.56196594 47.11329651 C57.82671249 47.10813522 59.09145905 47.10297394 60.39453125 47.09765625 C62.34826912 47.09553383 62.34826912 47.09553383 64.34147644 47.09336853 C67.79216454 47.08956355 71.24281008 47.07975064 74.69348145 47.06866455 C78.21947657 47.05840689 81.74547861 47.0538616 85.27148438 47.04882812 C92.18100699 47.03812644 99.09050145 47.02107443 106 47 C105.86722656 47.59167969 105.73445313 48.18335938 105.59765625 48.79296875 C105.42105469 49.58316406 105.24445313 50.37335938 105.0625 51.1875 C104.88847656 51.96480469 104.71445313 52.74210937 104.53515625 53.54296875 C103.99488667 56.02347652 103.49105628 58.50932716 103 61 C95.77543738 61.07001037 88.55094984 61.12306696 81.32611465 61.15543652 C77.97000756 61.17098523 74.61431068 61.19368193 71.25830078 61.22631836 C67.38568099 61.26301543 63.51338793 61.27979832 59.640625 61.29296875 C58.455755 61.30845261 57.27088501 61.32393646 56.05010986 61.33988953 C46.42183488 61.34180283 36.62017281 60.32857453 28.375 54.9375 C27.57835937 54.43089844 26.78171875 53.92429688 25.9609375 53.40234375 C24 52 24 52 22 50 C17.94809518 50.20958128 15.80092355 52.80154926 13 55.5 C7.8028169 60.50704225 7.8028169 60.50704225 4 61 C2.99515796 59.04414675 1.99626195 57.08523763 1 55.125 C0.1646875 53.48917969 0.1646875 53.48917969 -0.6875 51.8203125 C-2 49 -2 49 -2 47 C-0.50146484 46.36384766 -0.50146484 46.36384766 1.02734375 45.71484375 C5.39559114 43.82567488 9.21540491 41.98701214 12 38 C14.14221374 29.92032278 13.43876748 21.26763296 13 13 C8.71 13 4.42 13 0 13 C0 8.71 0 4.42 0 0 Z " fill="#3F3D3D" transform="translate(129,164)"/>
<path d="M0 0 C12.91323509 17.21764679 19.77451285 40.99786888 26.5625 61.1875 C26.7896167 61.86240479 27.0167334 62.53730957 27.25073242 63.23266602 C28.82797932 68.09191053 29.96257519 73.00437838 31 78 C28.54285453 78.83698386 26.08441143 79.66972424 23.625 80.5 C22.92632812 80.73847656 22.22765625 80.97695313 21.5078125 81.22265625 C16.2265625 83 16.2265625 83 14 83 C13.75507813 82.12085938 13.51015625 81.24171875 13.2578125 80.3359375 C6.52706071 56.60792725 -1.36753136 33.85150542 -11.94360352 11.57006836 C-13 9 -13 9 -14 4 C-9.38 2.68 -4.76 1.36 0 0 Z " fill="#3E3C3C" transform="translate(201,297)"/>
<path d="M0 0 C1.52152079 0.11633358 3.04220723 0.2435887 4.5625 0.375 C5.40941406 0.44460938 6.25632813 0.51421875 7.12890625 0.5859375 C10.53278471 1.07683698 13.71321565 2.00055754 17 3 C14.44773555 16.27177515 11.20563595 29.15349739 7 42 C6.77618652 42.69158203 6.55237305 43.38316406 6.32177734 44.09570312 C1.95930483 57.323215 -4.2711512 70.4067268 -12 82 C-17.46737191 80.25192871 -22.75824848 78.34205919 -28 76 C-27.35405261 72.16980489 -25.5466883 69.53613222 -23.4375 66.3125 C-10.39987093 45.74346819 -4.71792773 23.62394124 0 0 Z " fill="#3E3C3C" transform="translate(157,299)"/>
<path d="M0 0 C3.48579191 1.98927391 6.19581306 4.39162612 8 8 C8.5880376 13.14112877 9.17453731 18.31516132 5.8125 22.5625 C1.96487752 25.89710615 -0.40677708 26.82619386 -5.4375 27.375 C-11.00119448 26.78934795 -13.78500019 24.40684189 -17.375 20.25 C-19.36415233 16.27169534 -19.87057168 13.36156413 -19 9 C-14.56913662 0.61300861 -9.21661575 -1.65093117 0 0 Z " fill="#413F3F" transform="translate(228,282)"/>
<path d="M0 0 C3.70793655 1.21139972 6.06114478 3.49744618 8.8125 6.1484375 C9.5869043 6.86580078 9.5869043 6.86580078 10.37695312 7.59765625 C13.46307154 10.49900069 16.17831887 13.51886614 18.75 16.8984375 C17.15629329 18.26489898 15.54967018 19.61630916 13.9375 20.9609375 C13.04417969 21.71503906 12.15085938 22.46914062 11.23046875 23.24609375 C10.41191406 23.79136719 9.59335938 24.33664063 8.75 24.8984375 C5.41209265 23.78580172 4.77812376 22.99353711 2.625 20.3359375 C-1.27498292 15.71775644 -5.65786733 11.81372522 -10.25 7.8984375 C-4.13166969 -0.18649898 -4.13166969 -0.18649898 0 0 Z " fill="#3E3D3D" transform="translate(140.25,123.1015625)"/>
<path d="M0 0 C1.65 0 3.3 0 5 0 C3.57384988 17.63922518 3.57384988 17.63922518 0 23 C-2.8203125 23.29296875 -2.8203125 23.29296875 -6.125 23.1875 C-7.22070312 23.16042969 -8.31640625 23.13335937 -9.4453125 23.10546875 C-10.70988281 23.05326172 -10.70988281 23.05326172 -12 23 C-11.46890625 22.09378906 -10.9378125 21.18757813 -10.390625 20.25390625 C-6.53990086 13.63160704 -2.93484263 7.09253636 0 0 Z " fill="#F5F4F4" transform="translate(352,193)"/>
<path d="M0 0 C2.4375 1.5625 2.4375 1.5625 4 4 C4.56288002 7.94016013 4.60396028 10.05782196 2.4375 13.4375 C-0.96719488 15.61999672 -3.03430012 15.63734462 -7 15 C-9.96135546 12.41830549 -10.86756104 10.81118865 -11.5 6.9375 C-11 4 -11 4 -9.4375 1.625 C-6.06489221 -0.62340519 -3.97487617 -0.56783945 0 0 Z " fill="#F2F5FA" transform="translate(230,242)"/>
<path d="M0 0 C1.0209375 -0.01160156 1.0209375 -0.01160156 2.0625 -0.0234375 C4.61034606 0.50051471 5.47761182 1.2799704 7 3.375 C7.61350778 6.42595763 7.50241849 9.30910533 7 12.375 C5.4375 14.4375 5.4375 14.4375 3 15.375 C-3.12246671 16.01947018 -3.12246671 16.01947018 -5.69140625 14.1328125 C-7.34460529 11.91209737 -7.40246813 10.62181305 -7.375 7.875 C-7.38273438 7.1015625 -7.39046875 6.328125 -7.3984375 5.53125 C-6.60615601 1.24360899 -4.15850187 -0.0472557 0 0 Z " fill="#FCFDFE" transform="translate(164,241.625)"/>
<path d="M0 0 C9.9 0 19.8 0 30 0 C30 1.98 30 3.96 30 6 C20.1 6 10.2 6 0 6 C0 4.02 0 2.04 0 0 Z " fill="#EDEDED" transform="translate(322,146)"/>
<path d="M0 0 C9.57 0 19.14 0 29 0 C29 1.98 29 3.96 29 6 C19.43 6 9.86 6 0 6 C0 4.02 0 2.04 0 0 Z " fill="#FAF9F9" transform="translate(182,189)"/>
<path d="M0 0 C9.57 0 19.14 0 29 0 C29 1.98 29 3.96 29 6 C19.43 6 9.86 6 0 6 C0 4.02 0 2.04 0 0 Z " fill="#FCFCFC" transform="translate(182,174)"/>
<path d="M0 0 C9.57 0 19.14 0 29 0 C29 1.98 29 3.96 29 6 C19.43 6 9.86 6 0 6 C0 4.02 0 2.04 0 0 Z " fill="#FBFBFB" transform="translate(182,159)"/>
<path d="M0 0 C7.11008111 -0.4820394 7.11008111 -0.4820394 11 1.625 C13 4 13 4 13.625 6.9375 C12.77086776 11.12274796 11.4752331 12.53837655 8 15 C5.19242993 15.40997788 2.86006586 15.24237846 0 15 C0 10.05 0 5.1 0 0 Z " fill="#F5F8FB" transform="translate(124,242)"/>
<path d="M0 0 C9.9 0 19.8 0 30 0 C30 1.65 30 3.3 30 5 C20.1 5 10.2 5 0 5 C0 3.35 0 1.7 0 0 Z " fill="#FCFCFC" transform="translate(322,132)"/>
<path d="M0 0 C1.875 1.0625 1.875 1.0625 3 3 C3.4375 6.5 3.4375 6.5 3 10 C0.92308202 12.38460953 -0.40556916 12.8959746 -3.5 13.4375 C-6 13 -6 13 -8.375 11.4375 C-10 9 -10 9 -9.9375 5.375 C-8.3868786 -0.20723702 -5.30716391 -0.55282957 0 0 Z " fill="#F6F5F5" transform="translate(226,289)"/>
<path d="M0 0 C1.60875 -0.04125 3.2175 -0.0825 4.875 -0.125 C5.77992188 -0.14820313 6.68484375 -0.17140625 7.6171875 -0.1953125 C10 0 10 0 12 2 C12.25 4.5 12.25 4.5 12 7 C10 9 10 9 6.375 9.125 C5.26125 9.08375 4.1475 9.0425 3 9 C3 10.98 3 12.96 3 15 C2.01 15 1.02 15 0 15 C0 10.05 0 5.1 0 0 Z " fill="#3F76C1" transform="translate(254,242)"/>
<path d="M0 0 C0.99 0 1.98 0 3 0 C3.83739781 2.1234016 4.66980283 4.2487728 5.5 6.375 C5.9640625 7.55835938 6.428125 8.74171875 6.90625 9.9609375 C8 13 8 13 8 15 C7.34 15 6.68 15 6 15 C5.67 13.68 5.34 12.36 5 11 C2.36 11 -0.28 11 -3 11 C-3.33 12.32 -3.66 13.64 -4 15 C-4.66 15 -5.32 15 -6 15 C-4.36041242 9.76727367 -2.61047965 4.84803364 0 0 Z " fill="#2967BA" transform="translate(291,242)"/>
<path d="M0 0 C1.0209375 -0.01160156 1.0209375 -0.01160156 2.0625 -0.0234375 C4.61034606 0.50051471 5.47761182 1.2799704 7 3.375 C7.61350778 6.42595763 7.50241849 9.30910533 7 12.375 C5.4375 14.4375 5.4375 14.4375 3 15.375 C-3.12246671 16.01947018 -3.12246671 16.01947018 -5.69140625 14.1328125 C-7.34460529 11.91209737 -7.40246813 10.62181305 -7.375 7.875 C-7.38273438 7.1015625 -7.39046875 6.328125 -7.3984375 5.53125 C-6.60615601 1.24360899 -4.15850187 -0.0472557 0 0 Z M-5 4.375 C-5.33333333 7.875 -5.33333333 7.875 -5 11.375 C-3.11499729 13.69063087 -3.11499729 13.69063087 0 13.625 C3.11499729 13.69063087 3.11499729 13.69063087 5 11.375 C5.33333333 7.875 5.33333333 7.875 5 4.375 C3.11499729 2.05936913 3.11499729 2.05936913 0 2.125 C-3.11499729 2.05936913 -3.11499729 2.05936913 -5 4.375 Z " fill="#306CBC" transform="translate(164,241.625)"/>
<path d="M0 0 C2.4375 1.5625 2.4375 1.5625 4 4 C4.56288002 7.94016013 4.60396028 10.05782196 2.4375 13.4375 C-0.96719488 15.61999672 -3.03430012 15.63734462 -7 15 C-9.96135546 12.41830549 -10.86756104 10.81118865 -11.5 6.9375 C-11 4 -11 4 -9.4375 1.625 C-6.06489221 -0.62340519 -3.97487617 -0.56783945 0 0 Z M-7 2 C-9.38798682 4.90585687 -9.38798682 4.90585687 -8.6875 8.625 C-8.35886877 11.82504312 -8.35886877 11.82504312 -7 13 C-3.54187831 13.33338596 -3.54187831 13.33338596 0 13 C2.30163882 9.54754176 2.34490322 8.05261287 2 4 C0.05541686 1.6278031 0.05541686 1.6278031 -3.5 1.6875 C-4.655 1.790625 -5.81 1.89375 -7 2 Z " fill="#1F60B6" transform="translate(230,242)"/>
<path d="M0 0 C7.11008111 -0.4820394 7.11008111 -0.4820394 11 1.625 C13 4 13 4 13.625 6.9375 C12.77086776 11.12274796 11.4752331 12.53837655 8 15 C5.19242993 15.40997788 2.86006586 15.24237846 0 15 C0 10.05 0 5.1 0 0 Z M2 2 C2 5.63 2 9.26 2 13 C6.13108746 13.30977972 6.13108746 13.30977972 9.9375 11.9375 C11.63181173 8.84787273 10.73951685 6.32782582 10 3 C8.81575674 1.58422523 8.81575674 1.58422523 5.4375 1.9375 C3.7359375 1.9684375 3.7359375 1.9684375 2 2 Z " fill="#1659B4" transform="translate(124,242)"/>
<path d="M0 0 C3.5625 0.125 3.5625 0.125 5.5625 1.125 C5.5625 1.785 5.5625 2.445 5.5625 3.125 C2.9225 3.125 0.2825 3.125 -2.4375 3.125 C-2.4375 3.785 -2.4375 4.445 -2.4375 5.125 C-1.87160156 5.36734375 -1.30570312 5.6096875 -0.72265625 5.859375 C0.01082031 6.19453125 0.74429687 6.5296875 1.5 6.875 C2.23089844 7.19984375 2.96179688 7.5246875 3.71484375 7.859375 C5.5625 9.125 5.5625 9.125 6.37890625 11.15625 C6.5625 13.125 6.5625 13.125 5.5625 14.875 C2.56134446 16.75072221 0.02038639 16.37648265 -3.4375 16.125 C-4.0975 15.795 -4.7575 15.465 -5.4375 15.125 C-5.4375 14.465 -5.4375 13.805 -5.4375 13.125 C-2.4675 13.455 0.5025 13.785 3.5625 14.125 C3.5625 12.805 3.5625 11.485 3.5625 10.125 C2.44875 9.83625 1.335 9.5475 0.1875 9.25 C-3.4375 8.125 -3.4375 8.125 -5.4375 6.125 C-4.71144209 0.17132517 -4.71144209 0.17132517 0 0 Z " fill="#2A68BA" transform="translate(327.4375,240.875)"/>
<path d="M0 0 C0.66 0.33 1.32 0.66 2 1 C2 1.66 2 2.32 2 3 C-0.64 2.67 -3.28 2.34 -6 2 C-6 3.32 -6 4.64 -6 6 C-4.88625 6.28875 -3.7725 6.5775 -2.625 6.875 C1 8 1 8 3 10 C2.75 12.5625 2.75 12.5625 2 15 C-1.04300316 16.52150158 -3.654085 16.23899393 -7 16 C-7.66 15.01 -8.32 14.02 -9 13 C-6.03 13 -3.06 13 0 13 C-0.33 12.01 -0.66 11.02 -1 10 C-4.50294871 8.28432339 -4.50294871 8.28432339 -8 7 C-8 5.02 -8 3.04 -8 1 C-5.26094655 -0.36952673 -3.02912668 -0.12621361 0 0 Z " fill="#2262B8" transform="translate(370,241)"/>
<path d="M0 0 C2.64 0 5.28 0 8 0 C8 0.33 8 0.66 8 1 C6.35 1.33 4.7 1.66 3 2 C2.67 3.98 2.34 5.96 2 8 C3.98 8 5.96 8 8 8 C8 8.33 8 8.66 8 9 C6.35 9 4.7 9 3 9 C3 10.98 3 12.96 3 15 C2.01 15 1.02 15 0 15 C0 10.05 0 5.1 0 0 Z " fill="#3770BE" transform="translate(254,242)"/>
<path d="M0 0 C1.65 0 3.3 0 5 0 C5.05386629 2.12472576 5.09273071 4.24983652 5.125 6.375 C5.14820313 7.55835938 5.17140625 8.74171875 5.1953125 9.9609375 C5 13 5 13 3 15 C0.375 15.125 0.375 15.125 -2 15 C-2.33 13.68 -2.66 12.36 -3 11 C-2.34 11 -1.68 11 -1 11 C-1 11.66 -1 12.32 -1 13 C0.32 13 1.64 13 3 13 C3 9.37 3 5.74 3 2 C2.01 2 1.02 2 0 2 C0 1.34 0 0.68 0 0 Z " fill="#2463B8" transform="translate(194,242)"/>
<path d="M0 0 C0.33 0.66 0.66 1.32 1 2 C2.98 2 4.96 2 7 2 C7.33 1.34 7.66 0.68 8 0 C11 5.75 11 5.75 11 8 C10.34 8 9.68 8 9 8 C8.67 6.68 8.34 5.36 8 4 C5.36 4 2.72 4 0 4 C-0.33 5.32 -0.66 6.64 -1 8 C-1.66 8 -2.32 8 -3 8 C-1.125 1.125 -1.125 1.125 0 0 Z " fill="#1156B2" transform="translate(288,249)"/>
<path d="M0 0 C0.99 0.33 1.98 0.66 3 1 C3.621881 9.23992322 3.621881 9.23992322 1.3125 12.0625 C-1.30085596 13.12196863 -3.20508215 13.23290982 -6 13 C-5.38125 12.71125 -4.7625 12.4225 -4.125 12.125 C-1.86674235 11.06279958 -1.86674235 11.06279958 0 9 C0.24253813 6.78927023 0.24253813 6.78927023 0.125 4.375 C0.09792969 3.14910156 0.09792969 3.14910156 0.0703125 1.8984375 C0.04710937 1.27195313 0.02390625 0.64546875 0 0 Z " fill="#1D5EB6" transform="translate(168,244)"/>
<path d="M0 0 C1.98 0 3.96 0 6 0 C6.5625 1.9375 6.5625 1.9375 7 4 C6 5 6 5 2.9375 5.0625 C1.4834375 5.0315625 1.4834375 5.0315625 0 5 C0 3.35 0 1.7 0 0 Z " fill="#FDFDFE" transform="translate(257,244)"/>
<path d="M0 0 C0.66 0 1.32 0 2 0 C2.66 1.98 3.32 3.96 4 6 C2.02 6 0.04 6 -2 6 C-1.34 4.02 -0.68 2.04 0 0 Z " fill="#E1EAF5" transform="translate(291,245)"/>
<path d="M0 0 C0.66 0.99 1.32 1.98 2 3 C-1.6441774 5.4294516 -3.71241272 5.16179575 -8 5 C-7.67 4.34 -7.34 3.68 -7 3 C-5 2.66666667 -3 2.33333333 -1 2 C-0.67 1.34 -0.34 0.68 0 0 Z " fill="#3670BE" transform="translate(231,252)"/>
<path d="M0 0 C2.35953094 2.35953094 2.49141413 3.77895617 3 7 C2.34 7 1.68 7 1 7 C0.67 5.68 0.34 4.36 0 3 C-2.31 3 -4.62 3 -7 3 C-7 2.67 -7 2.34 -7 2 C-4.69 2 -2.38 2 0 2 C0 1.34 0 0.68 0 0 Z " fill="#3972BF" transform="translate(296,250)"/>
</svg>
